<?xml version="1.0" encoding="UTF-8"?>
<svg width="500px" height="500px" viewBox="0 0 500 500" version="1.1" xmlns="http://www.w3.org/2000/svg" xmlns:xlink="http://www.w3.org/1999/xlink">
    <!-- Generator: Sketch 49.1 (51147) - http://www.bohemiancoding.com/sketch -->
    <title>Logo</title>
    <desc>Created with Sketch.</desc>
    <defs></defs>
    <g id="Logo" stroke="none" stroke-width="1" fill="none" fill-rule="evenodd">
        <path d="M232.565299,73 L232.565299,112.914793 L181.076964,112.914793 L181.076964,280.498225 L134.951998,280.498225 L134.951998,112.914793 L84,112.914793 L84,73 L232.565299,73 Z M415.724323,73 L350.023062,211.527811 L350.023062,280.498225 L303.898096,280.498225 L303.898096,211.527811 L238.196836,73 L290.757844,73 L327.228748,157.525444 L363.699651,73 L415.724323,73 Z" id="TY" fill="#000000"></path>
        <path d="M47.1976401,320.586982 C59.0864991,320.586982 68.8745481,323.766438 76.562081,330.125444 C84.2496138,336.48445 89.0319027,345.093437 90.9090909,355.952663 L66.6398498,355.952663 C65.0308313,352.23509 62.5726455,349.275751 59.2652186,347.074556 C55.9577916,344.873362 51.98,343.772781 47.3317243,343.772781 C40.0911411,343.772781 34.2808836,346.438632 29.9007777,351.770414 C25.5206718,357.102196 23.3306516,364.317114 23.3306516,373.415385 C23.3306516,383.296302 25.6324075,390.87808 30.2359882,396.160947 C34.8395689,401.443813 41.3872821,404.085207 49.8793242,404.085207 C55.3321091,404.085207 60.114398,402.446565 64.2263341,399.169231 C68.3382703,395.891897 71.243399,391.220543 72.9418075,385.15503 L43.9796192,385.15503 L43.9796192,367.105325 L92.1158488,367.105325 L92.1158488,391.905325 C90.3280504,397.970839 87.467616,403.596029 83.5344596,408.781065 C79.6013033,413.966101 74.5731959,418.172765 68.4499866,421.401183 C62.3267773,424.629602 55.3321212,426.243787 47.4658085,426.243787 C37.9010874,426.243787 29.5432556,424.018168 22.3920622,419.566864 C15.2408689,415.11556 9.7211243,408.878936 5.83266291,400.856805 C1.94420153,392.834674 0,383.687625 0,373.415385 C0,363.143144 1.94420153,353.996095 5.83266291,345.973964 C9.7211243,337.951834 15.2185217,331.71521 22.3250201,327.263905 C29.4315185,322.812601 37.7223089,320.586982 47.1976401,320.586982 Z M150.040225,320 C158.979217,320 167.09123,322.274533 174.376508,326.823669 C181.661787,331.372804 187.405003,337.6828 191.606329,345.753846 C195.807655,353.824892 197.908286,362.947484 197.908286,373.121893 C197.908286,383.296303 195.785308,392.443352 191.539287,400.563314 C187.293266,408.683275 181.527702,415.017729 174.242424,419.566864 C166.957146,424.115999 158.889827,426.390533 150.040225,426.390533 C141.190623,426.390533 133.123305,424.115999 125.838026,419.566864 C118.552748,415.017729 112.787185,408.683275 108.541164,400.563314 C104.295143,392.443352 102.172164,383.296303 102.172164,373.121893 C102.172164,362.947484 104.295143,353.824892 108.541164,345.753846 C112.787185,337.6828 118.552748,331.372804 125.838026,326.823669 C133.123305,322.274533 141.190623,320 150.040225,320 Z M150.040225,343.332544 C142.531472,343.332544 136.564785,345.998395 132.139984,351.330178 C127.715183,356.66196 125.502816,363.925792 125.502816,373.121893 C125.502816,382.220164 127.715183,389.459539 132.139984,394.840237 C136.564785,400.220934 142.531472,402.911243 150.040225,402.911243 C157.459588,402.911243 163.403929,400.220934 167.873425,394.840237 C172.34292,389.459539 174.577635,382.220164 174.577635,373.121893 C174.577635,364.023623 172.365267,356.784248 167.940467,351.40355 C163.515666,346.022853 157.548978,343.332544 150.040225,343.332544 Z M255.832663,320 C264.771655,320 272.883668,322.274533 280.168946,326.823669 C287.454224,331.372804 293.19744,337.6828 297.398766,345.753846 C301.600093,353.824892 303.700724,362.947484 303.700724,373.121893 C303.700724,383.296303 301.577745,392.443352 297.331724,400.563314 C293.085703,408.683275 287.32014,415.017729 280.034862,419.566864 C272.749584,424.115999 264.682265,426.390533 255.832663,426.390533 C246.983061,426.390533 238.915742,424.115999 231.630464,419.566864 C224.345186,415.017729 218.579623,408.683275 214.333602,400.563314 C210.08758,392.443352 207.964602,383.296303 207.964602,373.121893 C207.964602,362.947484 210.08758,353.824892 214.333602,345.753846 C218.579623,337.6828 224.345186,331.372804 231.630464,326.823669 C238.915742,322.274533 246.983061,320 255.832663,320 Z M255.832663,343.332544 C248.32391,343.332544 242.357222,345.998395 237.932422,351.330178 C233.507621,356.66196 231.295253,363.925792 231.295253,373.121893 C231.295253,382.220164 233.507621,389.459539 237.932422,394.840237 C242.357222,400.220934 248.32391,402.911243 255.832663,402.911243 C263.252026,402.911243 269.196366,400.220934 273.665862,394.840237 C278.135358,389.459539 280.370072,382.220164 280.370072,373.121893 C280.370072,364.023623 278.157705,356.784248 273.732904,351.40355 C269.308103,346.022853 263.341416,343.332544 255.832663,343.332544 Z M359.882006,320.586982 C371.949645,320.586982 381.938818,324.059926 389.849826,331.005917 C397.760833,337.951908 402.878329,347.343531 405.202467,359.181065 L380.933226,359.181065 C379.145428,354.387353 376.396729,350.620921 372.687047,347.881657 C368.977366,345.142393 364.574979,343.772781 359.479753,343.772781 C352.77551,343.772781 347.367501,346.463089 343.255564,351.843787 C339.143628,357.224484 337.087691,364.414945 337.087691,373.415385 C337.087691,382.415824 339.143628,389.581827 343.255564,394.913609 C347.367501,400.245392 352.77551,402.911243 359.479753,402.911243 C364.574979,402.911243 368.977366,401.541631 372.687047,398.802367 C376.396729,396.063103 379.145428,392.345586 380.933226,387.649704 L405.202467,387.649704 C402.878329,399.389408 397.760833,408.756573 389.849826,415.751479 C381.938818,422.746386 371.949645,426.243787 359.882006,426.243787 C350.674844,426.243787 342.585178,424.018168 335.612765,419.566864 C328.640351,415.11556 323.25469,408.878936 319.455618,400.856805 C315.656547,392.834674 313.757039,383.687625 313.757039,373.415385 C313.757039,363.143144 315.656547,353.996095 319.455618,345.973964 C323.25469,337.951834 328.640351,331.71521 335.612765,327.263905 C342.585178,322.812601 350.674844,320.586982 359.882006,320.586982 Z M500,321.614201 L500,425.363314 L476.937517,425.363314 L476.937517,382.073373 L441.00295,382.073373 L441.00295,425.363314 L418.074551,425.363314 L418.074551,321.614201 L441.00295,321.614201 L441.00295,361.822485 L476.937517,361.822485 L476.937517,321.614201 L500,321.614201 Z" id="GOOCH" fill="#CF000F"></path>
    </g>
</svg>